<svg xmlns="http://www.w3.org/2000/svg" x="0px" y="0px"
width="20" height="20"
viewBox="0 0 172 172"
style=" fill:#c1c1c1;"><g fill="#c1c1c1" fill-rule="#c1c1c1" stroke="none" stroke-width="1" stroke-linecap="butt" stroke-linejoin="miter" stroke-miterlimit="10" stroke-dasharray="" stroke-dashoffset="0" font-family="none" font-weight="none" font-size="none" text-anchor="none" style="mix-blend-mode: normal"><path d="M0,172v-172h172v172z" fill="none"></path><g fill="#c1c1c1"><path d="M21.5,155.875c-0.20307,0.00086 -0.40597,-0.01171 -0.60738,-0.03763c-2.7148,-0.30875 -4.766,-2.60508 -4.76762,-5.33737c0,-62.30162 25.29475,-99.10962 69.64925,-101.93687v-21.68812c0.00084,-2.07115 1.1916,-3.95755 3.06099,-4.84921c1.86938,-0.89166 4.08477,-0.62992 5.69489,0.67283l59.79688,48.375c1.25968,1.02056 1.99143,2.55516 1.99143,4.17638c0,1.62121 -0.73175,3.15582 -1.99143,4.17637l-59.79687,48.375c-1.61012,1.30275 -3.82551,1.56449 -5.69489,0.67283c-1.86938,-0.89166 -3.06015,-2.77806 -3.06099,-4.84921v-20.77437c-48.99312,7.44437 -58.6305,47.11188 -59.02825,48.83188c-0.55306,2.45234 -2.73207,4.19376 -5.246,4.1925zM96.52425,38.1625v15.5875c0,2.96853 -2.40647,5.375 -5.375,5.375c-43.08062,0.12362 -57.93175,34.0775 -62.479,65.23638c14.79704,-19.5776 37.47871,-31.62846 61.9845,-32.93262c1.50909,-0.13944 3.00692,0.36467 4.1246,1.38819c1.11768,1.02352 1.75133,2.47131 1.7449,3.98681v15.5875l45.87562,-37.14125z"></path></g></g></svg>